<svg xmlns="http://www.w3.org/2000/svg" xmlns:xlink="http://www.w3.org/1999/xlink" xmlns:lucid="lucid" width="1999.71" height="1101.67"><g transform="translate(-38.39080459770116 -20)" lucid:page-tab-id="0_0"><path d="M0 0h3677.73v1322.83H0z" fill="#fff"/><path d="M1778.1 159.5h240v60h-240zM58.4 40H460v68.76H58.4z" fill="none"/><use xlink:href="#a" transform="matrix(1,0,0,1,58.39080459770116,40) translate(4.055555555555571 38.94444444444444)"/><use xlink:href="#b" transform="matrix(1,0,0,1,58.39080459770116,40) translate(92.75925925925927 38.94444444444444)"/><use xlink:href="#c" transform="matrix(1,0,0,1,58.39080459770116,40) translate(106.27777777777779 38.94444444444444)"/><use xlink:href="#d" transform="matrix(1,0,0,1,58.39080459770116,40) translate(292.1419753086419 38.94444444444444)"/><path d="M400 457.7c0 42.9-35.82 77.68-80 77.68s-80-34.78-80-77.7c0-42.9 35.82-77.68 80-77.68s80 34.78 80 77.7z" stroke="#000" stroke-opacity="0" stroke-width="3" fill="#dedeff"/><use xlink:href="#e" transform="matrix(1,0,0,1,245,385) translate(51.574074074074076 77.09027777777777)"/><path d="M490.18 452.75l-.27 1.1-.4 1.02-.58.94-.72.84-.83.7-.94.6-1.02.4-1.05.27-1.06.1H401v-2h82.2l.83-.08.76-.18.72-.3.67-.4.58-.52.5-.6.42-.66.3-.73.18-.72.02-58.7h2zm69.82-233l-65.57.1-.72.16-.72.3-.67.42-.58.5-.5.6-.42.67-.3.72-.2.76-.05.82-.05 142.32h-2l.05-142.4.08-1.05.26-1.07.4-1.02.58-.93.72-.84.83-.7.94-.58 1.02-.42 1.1-.26 65.8-.08z" stroke="#5e5e5e" stroke-width=".05" fill="#5e5e5e"/><path d="M401.03 458.7h-1.06l.03-1v-.65l-.02-.36h1.05z" fill="#5e5e5e"/><path d="M401.05 458.7h-1.1l.02-1v-1.05h1.08zm-1.04-2l.02.35v.64l-.03.96h1v-1.95z" stroke="#5e5e5e" stroke-width=".05" fill="#5e5e5e"/><path d="M575.26 218.76L561 223.4v-9.27z" fill="#5e5e5e"/><path d="M578.5 218.76l-18.5 6v-12zm-16.5 3.26l10.03-3.26L562 215.5z" stroke="#5e5e5e" stroke-width=".05" fill="#5e5e5e"/><use xlink:href="#f" transform="matrix(1,0,0,1,478.16974967586793,367.12323709608796) translate(0 17.77777777777778)"/><path d="M101 452.37h120.7M101.03 452.37H100" stroke="#5e5e5e" stroke-width="2" fill="none"/><path d="M236.96 452.37L222.7 457v-9.26z" stroke="#5e5e5e" stroke-width="2" fill="#5e5e5e"/><path d="M321 893.96l.06.82.2.76.3.73.4.67.5.6.6.5.67.4.73.3.72.2L900 899v2l-575.06-.07-1.1-.27-1.02-.42-.94-.57-.83-.72-.72-.83-.57-.94-.42-1.02-.26-1.06-.08-1.06v-18.6h2zm0-39.84h-2V536.38h2z" stroke="#5e5e5e" stroke-width=".05" fill="#5e5e5e"/><path d="M320 535.38h.7l.3-.02v1.04h-2v-1.05z" fill="#5e5e5e"/><path d="M320 535.35h1.02v1.08h-2.04v-1.1zm-.98 1.03h1.96v-1l-.28.02h-.7l-.98-.03z" stroke="#5e5e5e" stroke-width=".05" fill="#5e5e5e"/><path d="M915.26 900L901 904.64v-9.28z" fill="#5e5e5e"/><path d="M918.5 900l-18.5 6v-12zm-16.5 3.26l10.03-3.26-10.03-3.26z" stroke="#5e5e5e" stroke-width=".05" fill="#5e5e5e"/><use xlink:href="#g" transform="matrix(1,0,0,1,299.82716049382714,854.1161976049182) translate(0 14.222222222222223)"/><g opacity=".97"><path d="M739.77 218.76c0 43.5-35.77 78.76-79.88 78.76-44.13 0-79.9-35.26-79.9-78.76 0-43.5 35.77-78.76 79.9-78.76 44.1 0 79.87 35.26 79.87 78.76z" stroke="#5e5e5e" stroke-width="3" fill="#9391ff"/><use xlink:href="#h" transform="matrix(1,0,0,1,585,145) translate(68.82716049382717 77.90277777777777)"/></g><g opacity=".97"><path d="M1079.2 900c0 44.18-35.64 80-79.6 80-43.96 0-79.6-35.82-79.6-80s35.64-80 79.6-80c43.96 0 79.6 35.82 79.6 80z" stroke="#333" stroke-width="3" fill="#9391ff"/><use xlink:href="#i" transform="matrix(1,0,0,1,925,825) translate(68.82716049382717 78.71527777777777)"/></g><path d="M1400 375.2c0 42.92-35.82 77.7-80 77.7s-80-34.78-80-77.7c0-42.9 35.82-77.68 80-77.68s80 34.8 80 77.7z" stroke="#000" stroke-opacity="0" stroke-width="3" fill="#dedeff"/><use xlink:href="#j" transform="matrix(1,0,0,1,1245,302.52286132479935) translate(69.32716049382717 77.09027777777777)"/><path d="M1315.1 256.6l1.06.26 1.02.42.94.58.83.7.72.85.57.94.42 1.02.27 1.1.07 16.56h-2l-.07-16.32-.18-.72-.3-.73-.4-.66-.52-.6-.6-.52-.66-.4-.73-.3-.76-.2-.82-.06-318.9.08-.72.17-.72.3-.67.4-.6.52-.5.6-.42.65-.3.73-.18.76-.06.82-.1 51.5-.25 1.1-.43 1.02-.57.94-.7.83-.85.72-.94.57-1 .42-1.08.26-1.06.08h-52.57v-2h52.5l.82-.06.76-.2.72-.3.67-.4.6-.5.5-.6.42-.67.3-.73.17-.72.1-51.34.07-1.05.25-1.07.43-1.02.57-.93.7-.83.85-.7.94-.6 1.02-.4 1.1-.27 319.22-.08zm-654.2 57.36l.05.82.18.76.3.73.4.67.52.6.6.5.67.4.72.3.72.2 238.14.04v2l-238.37-.05-1.1-.27-1.02-.42-.93-.57-.84-.72-.7-.83-.58-.94-.43-1.02-.25-1.06-.08-1.06v-14.02h2z" stroke="#5e5e5e" stroke-width=".05" fill="#5e5e5e"/><path d="M659.86 299.02h.55l.5-.02v1.05h-2V299z" fill="#5e5e5e"/><path d="M659.86 299h.55l.5-.02v1.1h-2.04v-1.1zm-.95 1.02h1.96v-1l-.45.03h-.54l-.95-.03z" stroke="#5e5e5e" stroke-width=".05" fill="#5e5e5e"/><path d="M1320 294.3l-4.64-14.28h9.28z" fill="#5e5e5e"/><path d="M1320 297.52l-6-18.5h12zm-3.26-16.5l3.26 10.03 3.26-10.03z" stroke="#5e5e5e" stroke-width=".05" fill="#5e5e5e"/><use xlink:href="#k" transform="matrix(1,0,0,1,903.2005064583913,304) translate(0 21.333333333333332)"/><path d="M1720 497.7c0 42.9-35.82 77.68-80 77.68s-80-34.78-80-77.7c0-42.9 35.82-77.68 80-77.68s80 34.78 80 77.7z" stroke="#000" stroke-opacity="0" stroke-width="3" fill="#dedeff"/><use xlink:href="#l" transform="matrix(1,0,0,1,1565,425) translate(48.48765432098766 77.09027777777777)"/><path d="M1641 593.88l-.07 422.68-.27 1.1-.42 1.02-.57.94-.72.83-.83.72-.94.57-1.02.42-1.06.26-1.06.08-178.8-.02v-2l178.72.02.82-.06.76-.2.73-.3.67-.4.6-.5.5-.6.4-.67.3-.73.2-.72.06-422.44zm-640.4 421.58l.06.82.2.76.3.73.4.67.5.6.6.5.67.4.72.3.73.2 387.46.03v2l-387.7-.04-1.1-.27-1.02-.42-.94-.57-.83-.72-.72-.83-.57-.94-.42-1.02-.26-1.06-.08-1.06V982.5h2z" stroke="#5e5e5e" stroke-width=".05" fill="#5e5e5e"/><path d="M999.58 981.5h1.02v1.03h-2v-1.06z" fill="#5e5e5e"/><path d="M999.58 981.48h.72l.32-.02v1.1h-2.05v-1.12zm-.96 1.02h1.95v-1l-.27.02h-.72l-.96-.02z" stroke="#5e5e5e" stroke-width=".05" fill="#5e5e5e"/><path d="M1644.64 592.88h-9.28l4.64-14.27z" fill="#5e5e5e"/><path d="M1646 593.88h-12l6-18.5zm-9.26-2h6.52l-3.26-10.03z" stroke="#5e5e5e" stroke-width=".05" fill="#5e5e5e"/><use xlink:href="#m" transform="matrix(1,0,0,1,1392.242304199753,1010.8333461800081) translate(0 14.222222222222223)"/><path d="M1635.1 59.08l1.06.26 1.02.42.94.57.83.72.72.83.57.94.42 1.02.27 1.1.07 336.56h-2l-.07-336.32-.18-.72-.3-.73-.4-.67-.52-.6-.6-.5-.66-.4-.73-.3-.76-.2-.82-.06h-90.36v-2h90.44zM1464.83 61l-799.77.07-.72.18-.72.3-.67.4-.6.52-.5.6-.42.66-.3.73-.18.76-.06.82v71.46h-2V65.96l.07-1.06.25-1.06.43-1.02.57-.94.7-.83.85-.72.94-.57 1.02-.42 1.1-.27 800-.06z" stroke="#5e5e5e" stroke-width=".05" fill="#5e5e5e"/><path d="M660.9 138.53l-1-.03h-.54l-.47.02v-1.05h2z" fill="#5e5e5e"/><path d="M660.9 138.56l-1-.04h-.54l-.5.03v-1.1h2.05zm-2-1.06v1l.46-.02h.55l.96.02v-1z" stroke="#5e5e5e" stroke-width=".05" fill="#5e5e5e"/><path d="M1640 416.76l-4.64-14.26h9.28z" fill="#5e5e5e"/><path d="M1640 420l-6-18.5h12zm-3.26-16.5l3.26 10.03 3.26-10.03z" stroke="#5e5e5e" stroke-width=".05" fill="#5e5e5e"/><use xlink:href="#n" transform="matrix(1,0,0,1,1464.833849718367,46.666666666666664) translate(0 17.77777777777778)"/><path d="M1760.93 492.75l-.27 1.1-.42 1.02-.57.94-.72.84-.83.7-.94.6-1.02.4-1.06.27-1.06.1H1721v-2h32.96l.82-.08.76-.18.73-.3.67-.4.6-.52.5-.6.4-.66.3-.73.2-.72.06-71.83h2zm-64.5-83.72v2l-47.93-.03v-2z" stroke="#5e5e5e" stroke-width=".05" fill="#5e5e5e"/><path d="M1721.03 498.7h-1.06l.03-1v-.65l-.02-.36h1.05z" fill="#5e5e5e"/><path d="M1721.05 498.7h-1.1l.02-1v-1.05h1.08zm-1.04-2l.02.35v.64l-.03.96h1v-1.95z" stroke="#5e5e5e" stroke-width=".05" fill="#5e5e5e"/><path d="M1654.87 409.67l-12.77 7.86 5.7-13.87z" fill="#5e5e5e"/><path d="M1656.56 409.8L1640 420l7.4-18zm-12.37 5.27l8.97-5.53-4.96-4.22z" stroke="#5e5e5e" stroke-width=".05" fill="#5e5e5e"/><use xlink:href="#o" transform="matrix(1,0,0,1,1696.4361919794355,399.3333333333333) translate(0 14.222222222222223)"/><path d="M1731 506.2l-.07 588.86-.27 1.1-.42 1.02-.57.94-.72.83-.83.72-.94.57-1.02.42-1.06.26-1.06.08-685.37-.03v-2l685.3.03.8-.06.77-.2.73-.3.67-.4.6-.5.5-.6.4-.67.3-.73.2-.72.06-588.63zM273.16 1093.95l.07.82.18.76.3.73.42.67.5.6.6.5.67.4.72.3.72.2 718.42.02v2l-718.65-.03-1.1-.27-1.02-.42-.93-.57-.84-.72-.7-.83-.58-.94-.42-1.02-.25-1.06-.1-1.06V520.96h2z" stroke="#5e5e5e" stroke-width=".05" fill="#5e5e5e"/><path d="M272.34 520.1l.82.55v.33h-2v-1.8z" fill="#5e5e5e"/><path d="M272.35 520.07l.84.57v.37h-2.06v-1.86zm-1.16.9h1.94v-.3l-.82-.56-1.13-.86z" stroke="#5e5e5e" stroke-width=".05" fill="#5e5e5e"/><path d="M1736.34 505.5l-6 7.06-7.87-12.77z" fill="#5e5e5e"/><path d="M1738 505.1l-7.8 9.15-10.2-16.56zm-7.54 5.76l4.22-4.96-9.75-4.02z" stroke="#5e5e5e" stroke-width=".05" fill="#5e5e5e"/><use xlink:href="#p" transform="matrix(1,0,0,1,995.75869556247,1089.3333333333333) translate(0 14.222222222222223)"/><path d="M1205.33 379l1.05.08 1.07.26 1.02.42.93.57.84.72.7.83.6.94.4 1.02.27 1.1.1 27.06.05.82.2.76.3.73.4.68.5.6.6.5.67.4.72.3.73.2 18.32.06-.02 2-18.55-.08-1.1-.26-1.02-.42-.93-.58-.83-.7-.72-.84-.57-.94-.42-1.02-.26-1.07-.08-1.05-.1-26.9-.16-.72-.3-.73-.4-.67-.52-.6-.6-.5-.66-.4-.73-.3-.76-.2-.82-.06-301.7-.04v-2zm-544.44-5.04l.05.82.18.76.3.73.4.67.52.6.6.5.67.4.72.3.72.2 225.15.02v2l-225.37-.03-1.1-.27-1.02-.42-.93-.57-.84-.72-.7-.83-.58-.94-.43-1.02-.25-1.06-.08-1.06v-74.02h2z" stroke="#333" stroke-width=".05" fill="#333"/><path d="M659.86 299.02h.55l.5-.02v1.05h-2V299z" fill="#333"/><path d="M659.86 299h.55l.5-.02v1.1h-2.04v-1.1zm-.95 1.02h1.96v-1l-.45.03h-.54l-.95-.03z" stroke="#333" stroke-width=".05" fill="#333"/><path d="M1250.05 418.04l-14.26 4.63v-9.27z" fill="#333"/><path d="M1253.3 418.04l-18.5 6v-12zm-16.5 3.26l10.02-3.26-10.03-3.26z" stroke="#333" stroke-width=".05" fill="#333"/><use xlink:href="#q" transform="matrix(1,0,0,1,890.2107325078694,369.3333333333333) translate(0 14.222222222222223)"/><path d="M1315.1 217.84l1.06.26 1.02.42.94.58.83.7.72.85.57.93.42 1.02.27 1.1.07 55.32h-2l-.07-55.08-.18-.72-.3-.73-.4-.68-.52-.6-.6-.5-.66-.4-.73-.3-.76-.2-.82-.06H973.73v-2h340.3zm-572.83 1.92v-2h216.15v2z" stroke="#5e5e5e" stroke-width=".05" fill="#5e5e5e"/><path d="M742.3 219.76h-1.06l.03-.98v-.53l-.02-.5h1.05z" fill="#5e5e5e"/><path d="M742.32 219.8h-1.1l.03-1.02v-.53l-.03-.5h1.1zm-1.04-2v.45l.02.53-.03.96h1v-1.95z" stroke="#5e5e5e" stroke-width=".05" fill="#5e5e5e"/><path d="M1320 294.3l-4.64-14.28h9.28z" fill="#5e5e5e"/><path d="M1320 297.52l-6-18.5h12zm-3.26-16.5l3.26 10.03 3.26-10.03z" stroke="#5e5e5e" stroke-width=".05" fill="#5e5e5e"/><use xlink:href="#r" transform="matrix(1,0,0,1,958.4193243671466,208.09476387513442) translate(0 14.222222222222223)"/><path d="M1315.1 103.08l1.06.25 1.02.42.94.58.83.7.72.85.57.93.42 1.03.27 1.1.07 91.33h-2l-.07-91.1-.18-.7-.3-.74-.4-.66-.52-.6-.6-.5-.66-.42-.73-.3-.76-.18-.82-.07-350.35.03v-2l350.44-.04zm-365.76 1.96l-254.67.03-.73.17-.72.3-.67.4-.6.52-.5.6-.4.66-.3.73-.2.76-.06.83V143h-2v-33.05l.07-1.05.26-1.07.42-1.02.57-.92.72-.84.83-.7.94-.6 1.02-.4 1.1-.27 254.92-.03z" stroke="#5e5e5e" stroke-width=".05" fill="#5e5e5e"/><path d="M690.5 144.38l-.42-.17-1.6-.57v-.66h2z" fill="#5e5e5e"/><path d="M690.5 144.42l-.43-.2-1.6-.57v-.7h2.04zm-2-1.43v.62l1.6.56.36.16V143z" stroke="#5e5e5e" stroke-width=".05" fill="#5e5e5e"/><path d="M1320 215.53l-4.64-14.27h9.28z" fill="#5e5e5e"/><path d="M1320 218.76l-6-18.5h12zm-3.26-16.5l3.26 10.03 3.26-10.04z" stroke="#5e5e5e" stroke-width=".05" fill="#5e5e5e"/><use xlink:href="#s" transform="matrix(1,0,0,1,949.3373089605432,93.32600888902279) translate(0 14.222222222222223)"/><path d="M627.4 487.72l.2.73.3.72.4.67.5.6.6.5.67.4.73.3.76.2.82.06 251.4-.03v2l-251.48.03-1.06-.08-1.06-.26-1.02-.42-.94-.57-.83-.72-.73-.83-.57-.94-.42-1-.27-1.12-.06-177.58h2zm693.6-18.78l-.08 1.06-.26 1.07-.42 1-.57.95-.72.83-.83.72-.94.57-1.02.42-1.1.27-89.02.07-.82.07-.76.18-.73.3-.67.4-.6.52-.5.6-.4.66-.3.73-.2.73-.06 6.85-.08 1.05-.26 1.07-.42 1-.57.95-.72.83-.83.72-.94.57-1.02.42-1.1.27-313.54.04v-2l313.3-.04.72-.18.73-.3.67-.4.6-.52.5-.6.4-.66.3-.72.2-.77.06-.82.08-7.02.26-1.1.42-1.02.57-.94.72-.83.83-.7.94-.6 1.02-.4 1.06-.27 1.06-.08 88.86-.07.72-.18.73-.3.67-.4.6-.52.5-.6.4-.66.3-.72.2-.77.06-.82V453.9h2z" stroke="#5e5e5e" stroke-width=".05" fill="#5e5e5e"/><path d="M1320 452.9h1v1.03h-2v-1.06z" fill="#5e5e5e"/><path d="M1320 452.88h.7l.33-.02v1.1h-2.06v-1.12zm-.97 1.02h1.94v-1l-.27.02h-.7l-.97-.02z" stroke="#5e5e5e" stroke-width=".05" fill="#5e5e5e"/><path d="M630.98 309.38h-9.28l4.64-14.27z" fill="#5e5e5e"/><path d="M632.35 310.38h-12.02l6-18.5zm-9.27-2h6.52l-3.26-10.03z" stroke="#5e5e5e" stroke-width=".05" fill="#5e5e5e"/><use xlink:href="#t" transform="matrix(1,0,0,1,883.7924209283443,482.2344206545954) translate(0 14.222222222222223)"/><path d="M1302.92 900.95l-221.22.05v-2l221.22-.05zM1435.1 374.3l1.06.25 1.02.42.94.58.83.7.72.85.57.93.42 1.02.27 1.1.07 513.9-.08 1.05-.26 1.06-.42 1.02-.57.94-.72.83-.83.72-.94.57-1.02.42-1.1.27-118.8.02v-2l118.56-.02.72-.18.73-.3.67-.4.6-.52.5-.6.4-.66.3-.73.2-.76.06-.82-.07-513.57-.18-.73-.3-.73-.4-.67-.52-.6-.6-.5-.66-.4-.73-.3-.76-.2-.82-.06h-15.46v-2h15.54z" stroke="#5e5e5e" stroke-width=".05" fill="#5e5e5e"/><path d="M1417.5 379.85l-14.26-4.64 14.26-4.62z" fill="#5e5e5e"/><path d="M1418.5 381.22l-18.5-6 18.5-6.02zm-12.03-6l10.03 3.25v-6.52z" stroke="#5e5e5e" stroke-width=".05" fill="#5e5e5e"/><path d="M1081.72 901h-1.06l.04-.98v-.73l-.02-.3h1.04z" fill="#5e5e5e"/><path d="M1081.75 901.02h-1.1l.02-1v-1.05h1.08zm-1.04-2l.02.27v.72l-.03.96h1V899z" stroke="#5e5e5e" stroke-width=".05" fill="#5e5e5e"/><use xlink:href="#q" transform="matrix(1,0,0,1,1302.9207291491402,889.3333333333333) translate(0 14.222222222222223)"/><path d="M1127.78 681.05l-123 .02-.73.18-.72.3-.67.4-.6.52-.5.6-.4.66-.3.73-.2.76-.06.82V817.5h-2V685.96l.08-1.06.26-1.06.42-1.02.57-.94.72-.83.83-.72.94-.57 1-.42 1.12-.27 123.24-.02zm231.05-218.9l-.07 212.9-.27 1.1-.43 1.03-.57.94-.72.83-.83.72-.94.57-1 .42-1.07.26-1.06.08-209.8.04v-2l209.72-.04.8-.06.77-.2.73-.3.67-.4.6-.5.5-.6.4-.67.3-.73.2-.72.06-212.68z" stroke="#5e5e5e" stroke-width=".05" fill="#5e5e5e"/><path d="M1000.6 818.53l-.98-.03h-1.02v-1.03h2z" fill="#5e5e5e"/><path d="M1000.62 818.56l-1-.04h-.72l-.33.02v-1.1h2.05zm-2-1.06v1l.27-.02h.72l.95.02v-1z" stroke="#5e5e5e" stroke-width=".05" fill="#5e5e5e"/><path d="M1362.47 461.14h-9.27l4.63-14.26z" fill="#5e5e5e"/><path d="M1363.84 462.14h-12.02l6-18.5zm-9.27-2h6.52l-3.27-10.03z" stroke="#5e5e5e" stroke-width=".05" fill="#5e5e5e"/><use xlink:href="#s" transform="matrix(1,0,0,1,1127.7849266800044,669.3333333333334) translate(0 14.222222222222223)"/><path d="M1117.65 611.04l-143.88.03-.73.18-.72.3-.67.4-.6.52-.5.6-.42.66-.3.73-.18.76-.06.82V823.7h-2V615.96l.07-1.06.26-1.06.42-1.02.57-.94.7-.83.85-.72.94-.57 1.02-.42 1.1-.27 144.13-.03zM1341.5 468.8l-.08 136.26-.27 1.1-.42 1.02-.57.94-.7.83-.85.72-.93.57-1 .42-1.08.26-1.07.08-198.1.04v-2l198.02-.04.83-.06.76-.2.72-.3.67-.4.6-.5.5-.6.42-.67.3-.73.17-.72.07-136z" stroke="#5e5e5e" stroke-width=".05" fill="#5e5e5e"/><path d="M969.6 824.27l-.2.06-1.8.8v-1.46h2z" fill="#5e5e5e"/><path d="M969.6 824.3l-.18.05-1.86.82v-1.53h2.05zm-2-.6v1.4l1.8-.8.16-.05v-.56z" stroke="#5e5e5e" stroke-width=".05" fill="#5e5e5e"/><path d="M1345.13 467.8h-9.27l4.63-14.25z" fill="#5e5e5e"/><path d="M1346.5 468.8h-12.02l6-18.5zm-9.27-2h6.52l-3.26-10.02z" stroke="#5e5e5e" stroke-width=".05" fill="#5e5e5e"/><use xlink:href="#u" transform="matrix(1,0,0,1,1117.6536044258191,599.3333333333334) translate(0 14.222222222222223)"/><path d="M1171.27 783.55l-141.35.02-.73.18-.73.3-.67.4-.6.52-.5.6-.4.66-.3.73-.2.76-.06.82v32.96h-2v-33.04l.08-1.05.26-1.06.42-1.02.57-.94.72-.83.82-.7.94-.6 1-.4 1.12-.28 141.6-.02zM1413 427.8l1.1.26 1.03.42.94.57.83.72.7.83.6.94.4 1.02.27 1.06.08 1.06-.07 342.88-.27 1.1-.4 1.02-.6.94-.7.83-.83.72-.94.57-1.02.42-1.06.26-1.05.08-225.42.04v-2l225.33-.04.83-.06.76-.2.72-.3.67-.4.58-.5.5-.6.42-.67.3-.72.18-.73.07-342.56-.07-.82-.18-.76-.3-.73-.4-.67-.52-.6-.6-.5-.66-.4-.73-.3-.73-.2-16.32-.06v-2z" stroke="#5e5e5e" stroke-width=".05" fill="#5e5e5e"/><path d="M1025.74 822.86l-1.3-.46-.7-.2v-.72h2z" fill="#5e5e5e"/><path d="M1025.76 822.9l-1.32-.48-.73-.2v-.77h2.06zm-2-1.4v.67l.7.2 1.25.45v-1.32z" stroke="#5e5e5e" stroke-width=".05" fill="#5e5e5e"/><path d="M1395.45 433.35l-14.26-4.63 14.25-4.64z" fill="#5e5e5e"/><path d="M1396.45 434.73l-18.5-6 18.5-6.02zm-12.03-6l10.03 3.25v-6.52z" stroke="#5e5e5e" stroke-width=".05" fill="#5e5e5e"/><use xlink:href="#r" transform="matrix(1,0,0,1,1171.266408161486,771.8342727184703) translate(0 14.222222222222223)"/><path d="M1521 947.1h-2l-.02-222.47h2zm-5.9-669.53l1.06.26 1.02.42.94.58.83.7.72.84.57.94.42 1.03.27 1.1.04 419.87h-2l-.04-419.63-.18-.72-.3-.73-.4-.67-.52-.6-.6-.5-.66-.4-.73-.3-.76-.2-.82-.06-134.15.06-.7.18-.74.3-.67.4-.6.52-.5.6-.42.66-.3.73-.18.76-.07.83v32.96h-2v-33.05l.08-1.05.27-1.07.42-1.02.56-.93.72-.83.83-.7.95-.6 1.02-.4 1.1-.28 134.47-.07z" stroke="#5e5e5e" stroke-width=".05" fill="#5e5e5e"/><path d="M1375.63 319.4l-.25-.26-1.75-1.52v-.15h2z" fill="#5e5e5e"/><path d="M1375.66 319.46l-.3-.3-1.75-1.53v-.2h2.06zm-2-1.97v.1l1.73 1.52.2.22v-1.85zM1521 948.1h-2v-1.03h2z" stroke="#5e5e5e" stroke-width=".05" fill="#5e5e5e"/><use xlink:href="#g" transform="matrix(1,0,0,1,1499.8271604938273,703.3016375875462) translate(0 14.222222222222223)"/><path d="M1083.35 948.37H1519" stroke="#5e5e5e" stroke-width="2" fill="none"/><path d="M1068.1 948.37l14.25-4.63V953z" stroke="#5e5e5e" stroke-width="2" fill="#5e5e5e"/><path d="M1518.97 948.37h1.03" stroke="#5e5e5e" stroke-width="2" fill="none"/><defs><path fill="#333" d="M240-174c0 40-23 61-54 70L253 0h-59l-57-94H76V0H24v-248c93 4 217-23 216 74zM76-134c48-2 112 12 112-38 0-48-66-32-112-35v73" id="v"/><path fill="#333" d="M185-48c-13 30-37 53-82 52C43 2 14-33 14-96s30-98 90-98c62 0 83 45 84 108H66c0 31 8 55 39 56 18 0 30-7 34-22zm-45-69c5-46-57-63-70-21-2 6-4 13-4 21h74" id="w"/><path fill="#333" d="M195-6C206 82 75 100 31 46c-4-6-6-13-8-21l49-6c3 16 16 24 34 25 40 0 42-37 40-79-11 22-30 35-61 35-53 0-70-43-70-97 0-56 18-96 73-97 30 0 46 14 59 34l2-30h47zm-90-29c32 0 41-27 41-63 0-35-9-62-40-62-32 0-39 29-40 63 0 36 9 62 39 62" id="x"/><path fill="#333" d="M85 4C-2 5 27-109 22-190h50c7 57-23 150 33 157 60-5 35-97 40-157h50l1 190h-47c-2-12 1-28-3-38-12 25-28 42-61 42" id="y"/><path fill="#333" d="M25 0v-261h50V0H25" id="z"/><path fill="#333" d="M133-34C117-15 103 5 69 4 32 3 11-16 11-54c-1-60 55-63 116-61 1-26-3-47-28-47-18 1-26 9-28 27l-52-2c7-38 36-58 82-57s74 22 75 68l1 82c-1 14 12 18 25 15v27c-30 8-71 5-69-32zm-48 3c29 0 43-24 42-57-32 0-66-3-65 30 0 17 8 27 23 27" id="A"/><path fill="#333" d="M135-150c-39-12-60 13-60 57V0H25l-1-190h47c2 13-1 29 3 40 6-28 27-53 61-41v41" id="B"/><g id="a"><use transform="matrix(0.06172839506172839,0,0,0.06172839506172839,0,0)" xlink:href="#v"/><use transform="matrix(0.06172839506172839,0,0,0.06172839506172839,15.987654320987653,0)" xlink:href="#w"/><use transform="matrix(0.06172839506172839,0,0,0.06172839506172839,28.333333333333332,0)" xlink:href="#x"/><use transform="matrix(0.06172839506172839,0,0,0.06172839506172839,41.85185185185185,0)" xlink:href="#y"/><use transform="matrix(0.06172839506172839,0,0,0.06172839506172839,55.37037037037037,0)" xlink:href="#z"/><use transform="matrix(0.06172839506172839,0,0,0.06172839506172839,61.54320987654321,0)" xlink:href="#A"/><use transform="matrix(0.06172839506172839,0,0,0.06172839506172839,73.88888888888889,0)" xlink:href="#B"/></g><path fill="#333" d="M35-132v-50h50v50H35zM35 0v-49h50V0H35" id="C"/><use transform="matrix(0.06172839506172839,0,0,0.06172839506172839,0,0)" xlink:href="#C" id="b"/><path fill="#333" d="M67-93c0 74 22 123 53 168H70C40 30 18-18 18-93s22-123 52-168h50c-32 44-53 94-53 168" id="D"/><path fill="#333" d="M24 0v-248h52V0H24" id="E"/><path fill="#333" d="M24-248c120-7 223 5 221 122C244-46 201 0 124 0H24v-248zM76-40c74 7 117-18 117-86 0-67-45-88-117-82v168" id="F"/><path fill="#333" d="M27 80v-341h46V80H27" id="G"/><path fill="#333" d="M135-194c87-1 58 113 63 194h-50c-7-57 23-157-34-157-59 0-34 97-39 157H25l-1-190h47c2 12-1 28 3 38 12-26 28-41 61-42" id="H"/><path fill="#333" d="M220-157c-53 9-28 100-34 157h-49v-107c1-27-5-49-29-50C55-147 81-57 75 0H25l-1-190h47c2 12-1 28 3 38 10-53 101-56 108 0 13-22 24-43 59-42 82 1 51 116 57 194h-49v-107c-1-25-5-48-29-50" id="I"/><path fill="#333" d="M102-93c0 74-22 123-52 168H0C30 29 54-18 53-93c0-74-22-123-53-168h50c30 45 52 94 52 168" id="J"/><path fill="#333" d="M110-194c64 0 96 36 96 99 0 64-35 99-97 99-61 0-95-36-95-99 0-62 34-99 96-99zm-1 164c35 0 45-28 45-65 0-40-10-65-43-65-34 0-45 26-45 65 0 36 10 65 43 65" id="K"/><path fill="#333" d="M135-194c53 0 70 44 70 98 0 56-19 98-73 100-31 1-45-17-59-34 3 33 2 69 2 105H25l-1-265h48c2 10 0 23 3 31 11-24 29-35 60-35zM114-30c33 0 39-31 40-66 0-38-9-64-40-64-56 0-55 130 0 130" id="L"/><path fill="#333" d="M115-3C79 11 28 4 28-45v-112H4v-33h27l15-45h31v45h36v33H77v99c-1 23 16 31 38 25v30" id="M"/><g id="c"><use transform="matrix(0.06172839506172839,0,0,0.06172839506172839,0,0)" xlink:href="#D"/><use transform="matrix(0.06172839506172839,0,0,0.06172839506172839,7.345679012345679,0)" xlink:href="#E"/><use transform="matrix(0.06172839506172839,0,0,0.06172839506172839,13.518518518518519,0)" xlink:href="#F"/><use transform="matrix(0.06172839506172839,0,0,0.06172839506172839,29.50617283950617,0)" xlink:href="#G"/><use transform="matrix(0.06172839506172839,0,0,0.06172839506172839,35.67901234567901,0)" xlink:href="#H"/><use transform="matrix(0.06172839506172839,0,0,0.06172839506172839,49.19753086419753,0)" xlink:href="#y"/><use transform="matrix(0.06172839506172839,0,0,0.06172839506172839,62.71604938271605,0)" xlink:href="#I"/><use transform="matrix(0.06172839506172839,0,0,0.06172839506172839,82.46913580246914,0)" xlink:href="#J"/><use transform="matrix(0.06172839506172839,0,0,0.06172839506172839,89.81481481481482,0)" xlink:href="#K"/><use transform="matrix(0.06172839506172839,0,0,0.06172839506172839,103.33333333333334,0)" xlink:href="#L"/><use transform="matrix(0.06172839506172839,0,0,0.06172839506172839,116.85185185185186,0)" xlink:href="#w"/><use transform="matrix(0.06172839506172839,0,0,0.06172839506172839,129.19753086419755,0)" xlink:href="#B"/><use transform="matrix(0.06172839506172839,0,0,0.06172839506172839,137.83950617283952,0)" xlink:href="#A"/><use transform="matrix(0.06172839506172839,0,0,0.06172839506172839,150.1851851851852,0)" xlink:href="#M"/><use transform="matrix(0.06172839506172839,0,0,0.06172839506172839,157.53086419753086,0)" xlink:href="#K"/><use transform="matrix(0.06172839506172839,0,0,0.06172839506172839,171.04938271604937,0)" xlink:href="#B"/></g><path fill="#333" d="M86-200l42-18 12 35-44 11 32 37-32 21-26-44-26 44-32-21 33-37-44-11 12-35 42 18-3-48h38" id="N"/><g id="d"><use transform="matrix(0.06172839506172839,0,0,0.06172839506172839,0,0)" xlink:href="#J"/><use transform="matrix(0.06172839506172839,0,0,0.06172839506172839,7.345679012345679,0)" xlink:href="#N"/><use transform="matrix(0.06172839506172839,0,0,0.06172839506172839,15.987654320987653,0)" xlink:href="#D"/><use transform="matrix(0.06172839506172839,0,0,0.06172839506172839,23.333333333333332,0)" xlink:href="#H"/><use transform="matrix(0.06172839506172839,0,0,0.06172839506172839,36.85185185185185,0)" xlink:href="#y"/><use transform="matrix(0.06172839506172839,0,0,0.06172839506172839,50.37037037037037,0)" xlink:href="#I"/><use transform="matrix(0.06172839506172839,0,0,0.06172839506172839,70.12345679012346,0)" xlink:href="#G"/><use transform="matrix(0.06172839506172839,0,0,0.06172839506172839,76.29629629629629,0)" xlink:href="#E"/><use transform="matrix(0.06172839506172839,0,0,0.06172839506172839,82.46913580246913,0)" xlink:href="#F"/><use transform="matrix(0.06172839506172839,0,0,0.06172839506172839,98.45679012345678,0)" xlink:href="#J"/></g><path fill="#333" d="M185-189c-5-48-123-54-124 2 14 75 158 14 163 119 3 78-121 87-175 55-17-10-28-26-33-46l33-7c5 56 141 63 141-1 0-78-155-14-162-118-5-82 145-84 179-34 5 7 8 16 11 25" id="O"/><path fill="#333" d="M59-47c-2 24 18 29 38 22v24C64 9 27 4 27-40v-127H5v-23h24l9-43h21v43h35v23H59v120" id="P"/><path fill="#333" d="M141-36C126-15 110 5 73 4 37 3 15-17 15-53c-1-64 63-63 125-63 3-35-9-54-41-54-24 1-41 7-42 31l-33-3c5-37 33-52 76-52 45 0 72 20 72 64v82c-1 20 7 32 28 27v20c-31 9-61-2-59-35zM48-53c0 20 12 33 32 33 41-3 63-29 60-74-43 2-92-5-92 41" id="Q"/><path fill="#333" d="M114-163C36-179 61-72 57 0H25l-1-190h30c1 12-1 29 2 39 6-27 23-49 58-41v29" id="R"/><g id="e"><use transform="matrix(0.06172839506172839,0,0,0.06172839506172839,0,0)" xlink:href="#O"/><use transform="matrix(0.06172839506172839,0,0,0.06172839506172839,14.814814814814813,0)" xlink:href="#P"/><use transform="matrix(0.06172839506172839,0,0,0.06172839506172839,20.98765432098765,0)" xlink:href="#Q"/><use transform="matrix(0.06172839506172839,0,0,0.06172839506172839,33.33333333333333,0)" xlink:href="#R"/><use transform="matrix(0.06172839506172839,0,0,0.06172839506172839,40.679012345679006,0)" xlink:href="#P"/></g><g id="f"><use transform="matrix(0.06172839506172839,0,0,0.06172839506172839,0,0)" xlink:href="#E"/><use transform="matrix(0.06172839506172839,0,0,0.06172839506172839,6.172839506172839,0)" xlink:href="#F"/></g><path fill="#333" d="M175 0L67-191c6 58 2 128 3 191H24v-248h59L193-55c-6-58-2-129-3-193h46V0h-61" id="S"/><path fill="#333" d="M238-95c0 69-44 99-111 99C63 4 22-25 22-93v-155h51v151c-1 38 19 59 55 60 90 1 49-130 58-211h52v153" id="T"/><path fill="#333" d="M230 0l2-204L168 0h-37L68-204 70 0H24v-248h70l56 185 57-185h69V0h-46" id="U"/><g id="g"><use transform="matrix(0.04938271604938272,0,0,0.04938271604938272,0,0)" xlink:href="#S"/><use transform="matrix(0.04938271604938272,0,0,0.04938271604938272,12.790123456790125,0)" xlink:href="#T"/><use transform="matrix(0.04938271604938272,0,0,0.04938271604938272,25.58024691358025,0)" xlink:href="#U"/></g><path fill="#333" d="M27 0v-27h64v-190l-56 39v-29l58-41h29v221h61V0H27" id="V"/><use transform="matrix(0.06172839506172839,0,0,0.06172839506172839,0,0)" xlink:href="#V" id="h"/><path fill="#333" d="M101-251c82-7 93 87 43 132L82-64C71-53 59-42 53-27h129V0H18c2-99 128-94 128-182 0-28-16-43-45-43s-46 15-49 41l-32-3c6-41 34-60 81-64" id="W"/><use transform="matrix(0.06172839506172839,0,0,0.06172839506172839,0,0)" xlink:href="#W" id="i"/><path fill="#333" d="M128-127c34 4 56 21 59 58 7 91-148 94-172 28-4-9-6-17-7-26l51-5c1 24 16 35 40 36 23 0 39-12 38-36-1-31-31-36-65-34v-40c32 2 59-3 59-33 0-20-13-33-34-33s-33 13-35 32l-50-3c6-44 37-68 86-68 50 0 83 20 83 66 0 35-22 52-53 58" id="X"/><use transform="matrix(0.06172839506172839,0,0,0.06172839506172839,0,0)" xlink:href="#X" id="j"/><path fill="#333" d="M62-158H24l-5-90h48" id="Y"/><path fill="#333" d="M125-100v72H85v-72H15v-39h70v-72h40v72h71v39h-71" id="Z"/><g id="k"><use transform="matrix(0.07407407407407407,0,0,0.07407407407407407,0,0)" xlink:href="#Y"/><use transform="matrix(0.07407407407407407,0,0,0.07407407407407407,6.296296296296296,0)" xlink:href="#Z"/><use transform="matrix(0.07407407407407407,0,0,0.07407407407407407,21.85185185185185,0)" xlink:href="#Y"/></g><path fill="#333" d="M30-248c118-7 216 8 213 122C240-48 200 0 122 0H30v-248zM63-27c89 8 146-16 146-99s-60-101-146-95v194" id="aa"/><path fill="#333" d="M100-194c63 0 86 42 84 106H49c0 40 14 67 53 68 26 1 43-12 49-29l28 8c-11 28-37 45-77 45C44 4 14-33 15-96c1-61 26-98 85-98zm52 81c6-60-76-77-97-28-3 7-6 17-6 28h103" id="ab"/><path fill="#333" d="M85-194c31 0 48 13 60 33l-1-100h32l1 261h-30c-2-10 0-23-3-31C134-8 116 4 85 4 32 4 16-35 15-94c0-66 23-100 70-100zm9 24c-40 0-46 34-46 75 0 40 6 74 45 74 42 0 51-32 51-76 0-42-9-74-50-73" id="ac"/><g id="l"><use transform="matrix(0.06172839506172839,0,0,0.06172839506172839,0,0)" xlink:href="#aa"/><use transform="matrix(0.06172839506172839,0,0,0.06172839506172839,15.987654320987653,0)" xlink:href="#ab"/><use transform="matrix(0.06172839506172839,0,0,0.06172839506172839,28.333333333333332,0)" xlink:href="#Q"/><use transform="matrix(0.06172839506172839,0,0,0.06172839506172839,40.67901234567901,0)" xlink:href="#ac"/></g><path fill="#333" d="M76-54c-1 42 2 86-19 110H24C36 42 46 24 48 0H25v-54h51" id="ad"/><g id="m"><use transform="matrix(0.04938271604938272,0,0,0.04938271604938272,0,0)" xlink:href="#E"/><use transform="matrix(0.04938271604938272,0,0,0.04938271604938272,4.938271604938272,0)" xlink:href="#F"/><use transform="matrix(0.04938271604938272,0,0,0.04938271604938272,17.7283950617284,0)" xlink:href="#ad"/><use transform="matrix(0.04938271604938272,0,0,0.04938271604938272,22.66666666666667,0)" xlink:href="#S"/><use transform="matrix(0.04938271604938272,0,0,0.04938271604938272,35.4567901234568,0)" xlink:href="#T"/><use transform="matrix(0.04938271604938272,0,0,0.04938271604938272,48.246913580246925,0)" xlink:href="#U"/></g><g id="n"><use transform="matrix(0.06172839506172839,0,0,0.06172839506172839,0,0)" xlink:href="#E"/><use transform="matrix(0.06172839506172839,0,0,0.06172839506172839,6.172839506172839,0)" xlink:href="#F"/><use transform="matrix(0.06172839506172839,0,0,0.06172839506172839,22.160493827160494,0)" xlink:href="#ad"/><use transform="matrix(0.06172839506172839,0,0,0.06172839506172839,28.333333333333332,0)" xlink:href="#S"/><use transform="matrix(0.06172839506172839,0,0,0.06172839506172839,44.32098765432099,0)" xlink:href="#T"/><use transform="matrix(0.06172839506172839,0,0,0.06172839506172839,60.30864197530864,0)" xlink:href="#U"/></g><path fill="#333" d="M123 10C108 53 80 86 19 72V37c35 8 53-11 59-39L3-190h52l48 148c12-52 28-100 44-148h51" id="ae"/><path fill="#333" d="M114-157C55-157 80-60 75 0H25v-261h50l-1 109c12-26 28-41 61-42 86-1 58 113 63 194h-50c-7-57 23-157-34-157" id="af"/><path fill="#333" d="M25-224v-37h50v37H25zM25 0v-190h50V0H25" id="ag"/><g id="o"><use transform="matrix(0.04938271604938272,0,0,0.04938271604938272,0,0)" xlink:href="#A"/><use transform="matrix(0.04938271604938272,0,0,0.04938271604938272,9.876543209876544,0)" xlink:href="#H"/><use transform="matrix(0.04938271604938272,0,0,0.04938271604938272,20.69135802469136,0)" xlink:href="#ae"/><use transform="matrix(0.04938271604938272,0,0,0.04938271604938272,30.567901234567906,0)" xlink:href="#M"/><use transform="matrix(0.04938271604938272,0,0,0.04938271604938272,36.44444444444445,0)" xlink:href="#af"/><use transform="matrix(0.04938271604938272,0,0,0.04938271604938272,47.25925925925927,0)" xlink:href="#ag"/><use transform="matrix(0.04938271604938272,0,0,0.04938271604938272,52.19753086419754,0)" xlink:href="#H"/><use transform="matrix(0.04938271604938272,0,0,0.04938271604938272,63.01234567901235,0)" xlink:href="#x"/></g><path fill="#333" d="M14-72v-43h91v43H14" id="ah"/><path fill="#333" d="M4 7l51-268h42L46 7H4" id="ai"/><g id="p"><use transform="matrix(0.04938271604938272,0,0,0.04938271604938272,0,0)" xlink:href="#Z"/><use transform="matrix(0.04938271604938272,0,0,0.04938271604938272,10.370370370370372,0)" xlink:href="#ad"/><use transform="matrix(0.04938271604938272,0,0,0.04938271604938272,15.308641975308642,0)" xlink:href="#ah"/><use transform="matrix(0.04938271604938272,0,0,0.04938271604938272,21.185185185185187,0)" xlink:href="#ad"/><use transform="matrix(0.04938271604938272,0,0,0.04938271604938272,26.12345679012346,0)" xlink:href="#ai"/><use transform="matrix(0.04938271604938272,0,0,0.04938271604938272,31.06172839506173,0)" xlink:href="#ad"/><use transform="matrix(0.04938271604938272,0,0,0.04938271604938272,36,0)" xlink:href="#N"/></g><g id="q"><use transform="matrix(0.04938271604938272,0,0,0.04938271604938272,0,0)" xlink:href="#Y"/><use transform="matrix(0.04938271604938272,0,0,0.04938271604938272,4.197530864197531,0)" xlink:href="#ai"/><use transform="matrix(0.04938271604938272,0,0,0.04938271604938272,9.135802469135804,0)" xlink:href="#Y"/></g><g id="r"><use transform="matrix(0.04938271604938272,0,0,0.04938271604938272,0,0)" xlink:href="#Y"/><use transform="matrix(0.04938271604938272,0,0,0.04938271604938272,4.197530864197531,0)" xlink:href="#N"/><use transform="matrix(0.04938271604938272,0,0,0.04938271604938272,11.11111111111111,0)" xlink:href="#Y"/></g><g id="s"><use transform="matrix(0.04938271604938272,0,0,0.04938271604938272,0,0)" xlink:href="#Y"/><use transform="matrix(0.04938271604938272,0,0,0.04938271604938272,4.197530864197531,0)" xlink:href="#ah"/><use transform="matrix(0.04938271604938272,0,0,0.04938271604938272,10.074074074074074,0)" xlink:href="#Y"/></g><g id="t"><use transform="matrix(0.04938271604938272,0,0,0.04938271604938272,0,0)" xlink:href="#E"/><use transform="matrix(0.04938271604938272,0,0,0.04938271604938272,4.938271604938272,0)" xlink:href="#F"/></g><g id="u"><use transform="matrix(0.04938271604938272,0,0,0.04938271604938272,0,0)" xlink:href="#Y"/><use transform="matrix(0.04938271604938272,0,0,0.04938271604938272,4.197530864197531,0)" xlink:href="#Z"/><use transform="matrix(0.04938271604938272,0,0,0.04938271604938272,14.567901234567902,0)" xlink:href="#Y"/></g></defs></g></svg>